<?xml version="1.0" encoding="UTF-8" standalone="yes"?><svg class="icon" xmlns="http://www.w3.org/2000/svg" xmlns:xlink="http://www.w3.org/1999/xlink" version="1.2" baseProfile="tiny" x="0" y="0" width="200" height="200" viewBox="0 0 1024 1024"><defs/><path fill="#f0f0f0" fill-opacity="1" d="M 78.7692 665.6 C 102.696 665.6 122.092 684.996 122.092 708.923 L 122.092 866.619 C 122.092 886.195 137.962 902.065 157.538 902.065 L 315.077 902.065 C 339.004 902.065 358.4 921.462 358.4 945.388 C 358.4 969.315 339.004 988.711 315.077 988.711 L 157.538 988.711 C 90.1087 988.711 35.4462 934.049 35.4462 866.619 L 35.4462 708.923 C 35.4462 684.996 54.8426 665.6 78.7692 665.6 M 945.231 665.6 C 969.157 665.6 988.554 684.996 988.554 708.923 L 988.554 866.619 C 988.554 934.049 933.891 988.711 866.462 988.711 L 708.923 988.711 C 684.996 988.711 665.6 969.315 665.6 945.388 C 665.6 921.462 684.996 902.065 708.923 902.065 L 866.462 902.065 C 886.038 902.065 901.908 886.195 901.908 866.619 L 901.908 708.923 C 901.908 684.996 921.304 665.6 945.231 665.6 M 526.021 227.367 L 745.551 328.074 C 755.627 332.691 762.537 342.262 763.746 353.28 C 775.562 461.785 761.856 553.511 721.999 627.83 C 681.708 702.818 615.188 759.375 523.697 797.105 C 516.088 800.252 507.549 800.294 499.909 797.223 C 408.182 760.281 341.504 703.646 301.214 627.712 C 261.238 552.448 248.438 460.524 262.105 352.729 C 263.48 341.933 270.33 332.612 280.222 328.074 L 499.751 227.367 C 508.09 223.543 517.682 223.543 526.021 227.367 M 512.906 290.658 L 322.678 377.895 L 321.418 391.916 C 315.589 468.598 325.75 533.662 351.508 587.54 L 356.864 598.174 C 387.978 656.699 438.587 701.598 509.834 733.026 L 511.527 733.735 L 513.3 732.987 C 580.214 702.858 628.972 661.504 660.401 608.729 L 666.427 598.055 C 696.123 542.759 708.726 474.112 703.803 391.68 L 702.74 377.698 L 512.906 290.658 M 315.116 35.4462 C 339.043 35.4462 358.439 54.8426 358.439 78.7692 C 358.439 102.696 339.043 122.092 315.116 122.092 L 157.538 122.092 C 137.962 122.092 122.092 137.962 122.092 157.538 L 122.092 315.234 C 122.092 339.161 102.696 358.558 78.7692 358.558 C 54.8426 358.558 35.4462 339.161 35.4462 315.234 L 35.4462 157.538 C 35.4462 90.1087 90.1087 35.4462 157.538 35.4462 L 315.077 35.4462 L 315.116 35.4462 M 866.501 35.4462 C 933.915 35.4679 988.554 90.1241 988.554 157.538 L 988.554 315.234 C 988.554 339.161 969.157 358.558 945.231 358.558 C 921.304 358.558 901.908 339.161 901.908 315.234 L 901.908 157.538 C 901.908 137.962 886.038 122.092 866.462 122.092 L 708.923 122.092 C 684.996 122.092 665.6 102.696 665.6 78.7692 C 665.6 54.8426 684.996 35.4462 708.923 35.4462 L 866.501 35.4462"/><path fill="#f0f0f0" fill-opacity="1" d="M 590.769 424.999 C 602.493 412.133 622.428 411.208 635.294 422.932 C 648.16 434.656 649.085 454.59 637.361 467.456 L 522.24 593.881 C 516.35 600.361 508.029 604.099 499.272 604.196 C 490.515 604.293 482.113 600.741 476.081 594.393 L 410.388 525.115 C 402.246 517.026 399.147 505.15 402.298 494.114 C 405.449 483.078 414.351 474.628 425.537 472.057 C 436.722 469.486 448.42 473.2 456.074 481.753 L 498.452 526.375 L 590.73 424.999 L 590.769 424.999 Z"/></svg>
